<svg id="Layer_1" data-name="Layer 1" xmlns="http://www.w3.org/2000/svg" viewBox="0 0 261.09 153.22"><defs><style>.cls-1{fill:#222;}</style></defs><path class="cls-1" d="M94.77,44.35a1.56,1.56,0,0,1,1-.68,1.11,1.11,0,0,1,1,.14,1.17,1.17,0,0,1,.41.91,3.66,3.66,0,0,1-.5,1.72,59.07,59.07,0,0,1-4.77,7.45,84.91,84.91,0,0,1-6.22,7.49,46.62,46.62,0,0,1-6.36,5.77q-3.09,2.26-5.17,2.27a9.76,9.76,0,0,1-5-1.18,9.36,9.36,0,0,1-3.13-2.91,11.13,11.13,0,0,1-1.59-3.77,11.56,11.56,0,0,1-.27-3.77c.06-1,.27-2.71.63-5.22s.85-5.42,1.46-8.72,1.28-6.84,2-10.62,1.56-7.44,2.41-10.95l-3.09.37a24.54,24.54,0,0,1-2.82.18,21.62,21.62,0,0,1-5.49-.68,22,22,0,0,1-3.86-1.32,1,1,0,0,1-.64-1,3.17,3.17,0,0,1,.55-1.37,4.86,4.86,0,0,1,1.13-1.18,2.21,2.21,0,0,1,1.23-.5c1.15.12,2.39.23,3.72.32a41.45,41.45,0,0,0,4.36.05C66.86,17.05,68,17,69,16.83s2.1-.27,3.13-.45C73,13.47,73.72,11,74.48,8.8a19.26,19.26,0,0,1,2-4.5,2.19,2.19,0,0,1,1.23-.77,11.29,11.29,0,0,1,2-.46,8.12,8.12,0,0,1,2.09,0,2.21,2.21,0,0,1,1.45.69q.45.72.36,3.72a48.36,48.36,0,0,1-1,7.63,48.62,48.62,0,0,1,6.77.41q3,.4,5,.9a28,28,0,0,1,3.36,1,20,20,0,0,0,1.91.68.92.92,0,0,1,.68.91,3.37,3.37,0,0,1-.27,1.5,3.11,3.11,0,0,1-1.05,1.32,2,2,0,0,1-1.63.36,15.21,15.21,0,0,1-2-.36,25.63,25.63,0,0,0-2.73-.46c-1.06-.12-2.32-.24-3.77-.36s-3.15-.18-5.08-.18c-.37,0-.78,0-1.23.05s-.92,0-1.41,0c-.24,1-.47,1.92-.68,2.86a26.49,26.49,0,0,1-.86,2.95q-1.19,3.64-2.73,7.9c-.91,2.49-2,5.33-3.27,8.54S71,49.8,69.44,53.43a13.77,13.77,0,0,0,.13,6,6.82,6.82,0,0,0,1.68,2.95,4.74,4.74,0,0,0,2.91,1.09,5.33,5.33,0,0,0,3.31-1,24.1,24.1,0,0,0,4-3c1.4-1.27,2.8-2.67,4.23-4.18s2.74-3,4-4.45S92,48,92.87,46.85,94.41,44.84,94.77,44.35Z" transform="translate(0 -3.01)"/><path class="cls-1" d="M136.19,47.35a2,2,0,0,1,1.31-.77,1.34,1.34,0,0,1,1.09.36,1.51,1.51,0,0,1,.37,1.23,3.54,3.54,0,0,1-.77,1.81,58.12,58.12,0,0,1-4,4.86q-2.26,2.5-4.86,4.86c-1.72,1.58-3.47,3.06-5.22,4.45A38.18,38.18,0,0,1,119,67.6a9.8,9.8,0,0,1-4.58,1.55c-1.25,0-2.47-.79-3.68-2.37a6.92,6.92,0,0,1-1.59-4.49,25.76,25.76,0,0,1,1-6c.43-1.51,1-3.32,1.77-5.4a52.92,52.92,0,0,0,1.82-6,14.16,14.16,0,0,0,.41-5,2.12,2.12,0,0,0-2.36-2,6.28,6.28,0,0,0-3.14,1,19.45,19.45,0,0,0-3.36,2.59A31.38,31.38,0,0,0,102.13,45a44.13,44.13,0,0,0-2.72,3.9c-.49,2.36-1,4.7-1.46,7-.42,1.93-.86,4-1.31,6.31s-.9,4.28-1.32,6a3.22,3.22,0,0,1-1.18.63,4.44,4.44,0,0,1-1.18.19,8.94,8.94,0,0,1-1.27-.1,5.43,5.43,0,0,1-1.37-.54,6.54,6.54,0,0,1-1.09-1,3.85,3.85,0,0,1-.81-1.59q4.08-16.8,6.44-27T98.5,23.37c1-4.23,1.63-7.17,2-8.81q.27-1.72.45-3.36a24.26,24.26,0,0,0,.18-3,13.64,13.64,0,0,0-.27-2.82,7.22,7.22,0,0,1,1.59-.73q.85-.27,1.68-.45c.66-.18,1.33-.33,2-.45a9.45,9.45,0,0,1,1.81-.19,6.62,6.62,0,0,1,1.37.14,1,1,0,0,1,.81.59,2.2,2.2,0,0,1,.5,1.82c0,.9-.1,1.84-.22,2.81-.25,1.15-.52,2.39-.82,3.73Q107.68,20,105.31,27T101,41.81a35.8,35.8,0,0,1,2.82-3.72,26.92,26.92,0,0,1,3.58-3.5A20.42,20.42,0,0,1,111.48,32a10.58,10.58,0,0,1,4.64-1.05,7.08,7.08,0,0,1,2.4.41,4.89,4.89,0,0,1,2,1.36,6.43,6.43,0,0,1,1.32,2.54,13,13,0,0,1,.36,4,14.3,14.3,0,0,1-.32,3c-.21,1-.5,2.17-.86,3.41s-.83,2.62-1.41,4.13-1.25,3.27-2,5.27c-.55,1.39-1,2.57-1.27,3.54a3,3,0,0,0,.18,2.54c.54,1,1.62,1.2,3.22.68s4-2.07,7.22-4.67c.73-.61,1.55-1.37,2.46-2.27S131.16,53,132,52s1.64-1.83,2.36-2.68S135.7,47.83,136.19,47.35Z" transform="translate(0 -3.01)"/><path class="cls-1" d="M173.79,48.44a70,70,0,0,1-6.18,7.76,55.34,55.34,0,0,1-7.31,6.72,40,40,0,0,1-7.9,4.77,19.14,19.14,0,0,1-7.86,1.82,11.46,11.46,0,0,1-4.31-1,12.29,12.29,0,0,1-4.22-3,14.26,14.26,0,0,1-3-5.17,17.89,17.89,0,0,1-.68-7.72,24.24,24.24,0,0,1,2.32-7.86,35.67,35.67,0,0,1,4.81-7.58,27.4,27.4,0,0,1,6.45-5.72,13.34,13.34,0,0,1,7.22-2.27q3.45,0,5,1.72a5.59,5.59,0,0,1,1.36,4.27,13.07,13.07,0,0,1-1.59,5.18,21.43,21.43,0,0,1-3.13,4.27,32.87,32.87,0,0,1-3.86,3.45c-1.37,1-2.65,2-3.86,2.81l-3.82,2.59c-1.21.82-2.27,1.56-3.18,2.23a9.76,9.76,0,0,0,.82,3.81,7.45,7.45,0,0,0,1.82,2.5,6.45,6.45,0,0,0,2.49,1.36,10.35,10.35,0,0,0,2.86.41,12.87,12.87,0,0,0,6.45-2A44.73,44.73,0,0,0,161,57.2a72.88,72.88,0,0,0,6-5.76q2.78-3,4.59-5.18a2.44,2.44,0,0,1,1.31-.86,1.3,1.3,0,0,1,1.09.18,1.27,1.27,0,0,1,.41,1.09A3.46,3.46,0,0,1,173.79,48.44Zm-23.25-14A4.72,4.72,0,0,0,148,35.54,13.45,13.45,0,0,0,145,38.68a27.06,27.06,0,0,0-2.73,5,28.92,28.92,0,0,0-1.9,6.77c.72-.55,1.51-1.11,2.36-1.68s1.69-1.2,2.54-1.86a25.52,25.52,0,0,0,5.45-5.27,9.18,9.18,0,0,0,1.72-3.91,3.71,3.71,0,0,0-.36-2.5A1.78,1.78,0,0,0,150.54,34.45Z" transform="translate(0 -3.01)"/><path class="cls-1" d="M20.53,156.22a22.65,22.65,0,0,1-8-1.36,20.39,20.39,0,0,1-6.45-3.81,18.81,18.81,0,0,1-4.4-5.77A17,17,0,0,1,0,138.06,22.19,22.19,0,0,1,1.59,129,25,25,0,0,1,6,121.89a27.47,27.47,0,0,1,6.31-5.22,42.87,42.87,0,0,1,7.27-3.5,20.77,20.77,0,0,1-3.77-2.63,20.09,20.09,0,0,1-3.13-3.45,17.94,17.94,0,0,1-2.18-4,11.27,11.27,0,0,1-.82-4.18,22.62,22.62,0,0,1,2.59-11.53,29.91,29.91,0,0,1,7.13-8.85,32.24,32.24,0,0,1,9.76-5.68,30.43,30.43,0,0,1,10.58-2A14,14,0,0,1,45.69,72a12.35,12.35,0,0,1,4,2.81A12,12,0,0,1,52.86,82a20.45,20.45,0,0,1-.77,6.09,28.2,28.2,0,0,1-2.18,5.58A16.13,16.13,0,0,1,47,97.78a4.69,4.69,0,0,1-3.18,1.59A8.92,8.92,0,0,1,41.33,99a17.87,17.87,0,0,1-2.55-.91,11.32,11.32,0,0,1-2.9-1.91,12.83,12.83,0,0,0,4.17-2.59,16.18,16.18,0,0,0,3.05-3.77,17.33,17.33,0,0,0,1.81-4.31,16.17,16.17,0,0,0,.59-4.22,7.41,7.41,0,0,0-1.36-4.5,4.93,4.93,0,0,0-4.09-1.59,17.24,17.24,0,0,0-7.62,1.86,21.78,21.78,0,0,0-6.77,5.18A24.23,24.23,0,0,0,21,90.15a22.13,22.13,0,0,0-1.14,9.95,14.21,14.21,0,0,0,2.5,6.9,24.92,24.92,0,0,0,3.86,4.36L29,111a22.68,22.68,0,0,1,2.37-.14,9.07,9.07,0,0,1,3.08.55c1,.36,1.55.88,1.55,1.54a5.09,5.09,0,0,1-.32,1.64,5.18,5.18,0,0,1-1,1.72,6.24,6.24,0,0,1-1.73,1.36,4.79,4.79,0,0,1-2.36.55,8,8,0,0,1-2.64-.55,21.77,21.77,0,0,1-3.08-1.36,18.13,18.13,0,0,0-6.27,2.59,19.36,19.36,0,0,0-4.77,4.41,20.64,20.64,0,0,0-3,5.54,15.37,15.37,0,0,0-1,5.81,23,23,0,0,0,.82,5.31,14,14,0,0,0,2.27,4.77,11.62,11.62,0,0,0,4,3.4,12.77,12.77,0,0,0,6,1.32,11.74,11.74,0,0,0,5-1.13,22.22,22.22,0,0,0,4.5-2.86,29.26,29.26,0,0,0,3.81-3.82,40.39,40.39,0,0,0,3-4.09c.84-1.33,1.56-2.54,2.13-3.63s1-1.87,1.23-2.36a1.86,1.86,0,0,1,.77-.82,1.32,1.32,0,0,1,1-.13,1.19,1.19,0,0,1,.77.68,2.46,2.46,0,0,1,0,1.63,32.71,32.71,0,0,1-2.72,7.31,34.66,34.66,0,0,1-5.14,7.59,28.79,28.79,0,0,1-7.35,5.95A18.7,18.7,0,0,1,20.53,156.22Z" transform="translate(0 -3.01)"/><path class="cls-1" d="M50.14,137.88q4-16.8,6.4-27t3.68-15.53c1-4.23,1.63-7.17,2-8.81.19-1.15.34-2.27.46-3.36a24.26,24.26,0,0,0,.18-3,13.64,13.64,0,0,0-.27-2.82,7.22,7.22,0,0,1,1.59-.73q.85-.27,1.68-.45c.66-.18,1.33-.33,2-.45a9.45,9.45,0,0,1,1.81-.19,6.45,6.45,0,0,1,1.36.14,1,1,0,0,1,.82.59,2.2,2.2,0,0,1,.5,1.82c0,.9-.11,1.84-.23,2.81-.24,1.15-.51,2.39-.81,3.73q-1.1,3.9-3,11.26-1.64,6.27-4.4,17.07T57,140.24a2.54,2.54,0,0,1-1.09.63,4.44,4.44,0,0,1-1.18.19,11.33,11.33,0,0,1-1.37-.1,6,6,0,0,1-1.27-.54,6.54,6.54,0,0,1-1.09-.95A3.85,3.85,0,0,1,50.14,137.88Z" transform="translate(0 -3.01)"/><path class="cls-1" d="M84.65,136.24a2.5,2.5,0,0,0,1.41.36,4.46,4.46,0,0,0,1.72-.36,6.39,6.39,0,0,0,1.64-1,3.72,3.72,0,0,0,1.13-1.63,5.65,5.65,0,0,0,0-2.86,27.29,27.29,0,0,0-1.13-4c-.52-1.42-1.08-2.86-1.68-4.31s-1.13-2.79-1.55-4c-.36-.91-.67-1.75-.91-2.54s-.47-1.32-.68-2a11,11,0,0,0-.5-1.32c-.3.48-.83,1.27-1.59,2.36s-1.57,2.22-2.45,3.41-1.71,2.27-2.5,3.27-1.33,1.68-1.63,2a2.73,2.73,0,0,1-1.41,1,1.24,1.24,0,0,1-1.13-.27,1.62,1.62,0,0,1-.5-1.18,3.09,3.09,0,0,1,.68-1.86c.36-.49.91-1.26,1.63-2.32s1.46-2.15,2.18-3.27,1.39-2.12,2-3a11.74,11.74,0,0,0,1-1.58,2.75,2.75,0,0,0-.5-1.91,3.4,3.4,0,0,1-.23-2.73,9.5,9.5,0,0,1,1.64-3,16.52,16.52,0,0,1,3-3,13,13,0,0,1,3.55-2,4,4,0,0,1,3.27,0,8.08,8.08,0,0,1,1.9,1.59,2,2,0,0,1,.55,1.77c-.12.31-.31.7-.55,1.18a13.2,13.2,0,0,1-1.09,1.77c-.48.7-1.18,1.59-2.09,2.68a25.72,25.72,0,0,0,.78,3.82c.33,1.15.65,2.15,1,3a25,25,0,0,0,1.18,2.82c.55,1.09,1.12,2.21,1.73,3.36s1.15,2.29,1.63,3.41a32.24,32.24,0,0,1,1.18,3.13,5.29,5.29,0,0,1,.27,2.45A11.32,11.32,0,0,1,96,133.24a23.73,23.73,0,0,1-3.26,4.23A20,20,0,0,1,88.23,141,10.2,10.2,0,0,1,83,142.42a6.63,6.63,0,0,1-3.68-1.18,13,13,0,0,1-4.81-5.91,2.87,2.87,0,0,1-.14-2.36,14.45,14.45,0,0,1,1-1.72,9.69,9.69,0,0,1,1.37-1.46q.36-.27.9-.63a6.75,6.75,0,0,1,1.28-.55l1.9-.63a42.45,42.45,0,0,0,1.64,4.4c.48,1.06.87,1.89,1.18,2.5A4.35,4.35,0,0,0,84.65,136.24Z" transform="translate(0 -3.01)"/><path class="cls-1" d="M145.68,120.44a70,70,0,0,1-6.18,7.76,55.34,55.34,0,0,1-7.31,6.72,40,40,0,0,1-7.9,4.77,19.1,19.1,0,0,1-7.86,1.82,11.46,11.46,0,0,1-4.31-.95,12.29,12.29,0,0,1-4.22-3,14.41,14.41,0,0,1-3.05-5.17,17.89,17.89,0,0,1-.68-7.72,24.24,24.24,0,0,1,2.32-7.86,36.07,36.07,0,0,1,4.81-7.58,27.4,27.4,0,0,1,6.45-5.72,13.34,13.34,0,0,1,7.22-2.27q3.45,0,5,1.72a5.55,5.55,0,0,1,1.36,4.27,13.07,13.07,0,0,1-1.59,5.18,21.43,21.43,0,0,1-3.13,4.27,32.87,32.87,0,0,1-3.86,3.45c-1.37,1-2.65,2-3.86,2.81l-3.82,2.59c-1.21.82-2.27,1.56-3.18,2.23a9.94,9.94,0,0,0,.82,3.81,7.45,7.45,0,0,0,1.82,2.5,6.52,6.52,0,0,0,2.49,1.36,10.37,10.37,0,0,0,2.87.41,12.87,12.87,0,0,0,6.44-1.95,44.73,44.73,0,0,0,6.59-4.73,72.88,72.88,0,0,0,6-5.76q2.78-3,4.59-5.18a2.42,2.42,0,0,1,1.32-.86,1.31,1.31,0,0,1,1.09.18,1.3,1.3,0,0,1,.4,1.09A3.46,3.46,0,0,1,145.68,120.44Zm-23.25-14a4.72,4.72,0,0,0-2.59,1.09,13.45,13.45,0,0,0-3,3.14,27.06,27.06,0,0,0-2.73,5,29.41,29.41,0,0,0-1.9,6.77c.72-.55,1.51-1.11,2.36-1.68s1.69-1.2,2.54-1.86a25.52,25.52,0,0,0,5.45-5.27,9.35,9.35,0,0,0,1.73-3.91,3.71,3.71,0,0,0-.37-2.5A1.78,1.78,0,0,0,122.43,106.45Z" transform="translate(0 -3.01)"/><path class="cls-1" d="M152,136.24a2.49,2.49,0,0,0,1.4.36,4.47,4.47,0,0,0,1.73-.36,6.34,6.34,0,0,0,1.63-1,3.66,3.66,0,0,0,1.14-1.63,5.65,5.65,0,0,0,0-2.86,26.21,26.21,0,0,0-1.14-4c-.51-1.42-1.07-2.86-1.68-4.31s-1.12-2.79-1.54-4c-.36-.91-.67-1.75-.91-2.54s-.47-1.32-.68-2a11,11,0,0,0-.5-1.32c-.3.48-.83,1.27-1.59,2.36s-1.57,2.22-2.45,3.41-1.71,2.27-2.5,3.27-1.33,1.68-1.63,2a2.77,2.77,0,0,1-1.41,1,1.26,1.26,0,0,1-1.14-.27,1.66,1.66,0,0,1-.5-1.18,3.18,3.18,0,0,1,.69-1.86c.36-.49.9-1.26,1.63-2.32s1.45-2.15,2.18-3.27,1.39-2.12,2-3a11.74,11.74,0,0,0,1-1.58,2.75,2.75,0,0,0-.5-1.91,3.36,3.36,0,0,1-.23-2.73,9.65,9.65,0,0,1,1.63-3,16.91,16.91,0,0,1,3-3,13.05,13.05,0,0,1,3.54-2,4,4,0,0,1,3.27,0,8,8,0,0,1,1.91,1.59,2.08,2.08,0,0,1,.55,1.77c-.13.31-.31.7-.55,1.18a14.33,14.33,0,0,1-1.09,1.77c-.48.7-1.18,1.59-2.09,2.68a25.76,25.76,0,0,0,.77,3.82c.34,1.15.65,2.15,1,3a23.23,23.23,0,0,0,1.18,2.82c.54,1.09,1.12,2.21,1.72,3.36s1.15,2.29,1.64,3.41a32.24,32.24,0,0,1,1.18,3.13,5.29,5.29,0,0,1,.27,2.45,11.32,11.32,0,0,1-1.59,3.72,24.28,24.28,0,0,1-3.27,4.23,19.73,19.73,0,0,1-4.45,3.49,10.2,10.2,0,0,1-5.22,1.46,6.6,6.6,0,0,1-3.68-1.18,13,13,0,0,1-4.81-5.91,2.84,2.84,0,0,1-.14-2.36,14.45,14.45,0,0,1,1-1.72,9.55,9.55,0,0,1,1.36-1.46l.91-.63a6.62,6.62,0,0,1,1.27-.55l1.91-.63a42.45,42.45,0,0,0,1.64,4.4c.48,1.06.87,1.89,1.18,2.5A4.35,4.35,0,0,0,152,136.24Z" transform="translate(0 -3.01)"/><path class="cls-1" d="M218.7,119.35a2,2,0,0,1,1.32-.77,1.33,1.33,0,0,1,1.08.36,1.51,1.51,0,0,1,.37,1.23,3.54,3.54,0,0,1-.77,1.81,58.12,58.12,0,0,1-4,4.86q-2.26,2.5-4.86,4.86c-1.72,1.58-3.47,3.06-5.22,4.45a38.18,38.18,0,0,1-5.09,3.45,9.8,9.8,0,0,1-4.58,1.55q-1.86,0-3.68-2.37a6.92,6.92,0,0,1-1.59-4.49,25.76,25.76,0,0,1,1-6c.43-1.51,1-3.32,1.77-5.4a52.92,52.92,0,0,0,1.82-6,13.93,13.93,0,0,0,.41-5,2.12,2.12,0,0,0-2.36-2,6.22,6.22,0,0,0-3.13,1,19.12,19.12,0,0,0-3.37,2.59,31.38,31.38,0,0,0-3.22,3.59,44.13,44.13,0,0,0-2.72,3.9c-.49,2.36-1,4.7-1.46,7-.42,1.93-.86,4-1.31,6.31s-.9,4.28-1.32,6a3.22,3.22,0,0,1-1.18.63,4.44,4.44,0,0,1-1.18.19,8.94,8.94,0,0,1-1.27-.1,5.43,5.43,0,0,1-1.37-.54,6.54,6.54,0,0,1-1.09-.95,3.85,3.85,0,0,1-.81-1.59q4.08-16.8,6.45-27T181,95.37c1-4.23,1.63-7.17,2-8.81q.27-1.73.45-3.36a24.26,24.26,0,0,0,.18-3,13.64,13.64,0,0,0-.27-2.82,7.22,7.22,0,0,1,1.59-.73q.85-.27,1.68-.45c.66-.18,1.33-.33,2-.45a9.45,9.45,0,0,1,1.81-.19,6.62,6.62,0,0,1,1.37.14,1,1,0,0,1,.81.59,2.2,2.2,0,0,1,.5,1.82c0,.9-.1,1.84-.22,2.81-.25,1.15-.52,2.39-.82,3.73Q190.19,92,187.82,99t-4.36,14.85a35.8,35.8,0,0,1,2.82-3.72,27.53,27.53,0,0,1,3.58-3.5A20.22,20.22,0,0,1,194,104a10.5,10.5,0,0,1,4.63-1,7.08,7.08,0,0,1,2.4.41,4.89,4.89,0,0,1,2,1.36,6.43,6.43,0,0,1,1.32,2.54,13,13,0,0,1,.36,4,14.3,14.3,0,0,1-.32,3c-.21,1-.5,2.17-.86,3.41s-.83,2.62-1.41,4.13-1.25,3.27-2,5.27c-.54,1.39-1,2.57-1.27,3.54a3,3,0,0,0,.18,2.54c.55,1,1.62,1.2,3.22.68s4-2.07,7.22-4.67c.73-.61,1.55-1.37,2.46-2.27s1.78-1.83,2.63-2.77,1.64-1.83,2.36-2.68S218.21,119.83,218.7,119.35Z" transform="translate(0 -3.01)"/><path class="cls-1" d="M242,124.89a31.88,31.88,0,0,1-2.45,6.45,21.19,21.19,0,0,1-3.68,5.17,16,16,0,0,1-4.81,3.41,13.89,13.89,0,0,1-5.86,1.23,9.6,9.6,0,0,1-5.86-1.59,9.9,9.9,0,0,1-3.18-3.95,15.76,15.76,0,0,1-1.27-5.18c-.15-1.88-.23-3.63-.23-5.27a20.15,20.15,0,0,1,.41-3.81,33.06,33.06,0,0,1,1.14-4.27,29.12,29.12,0,0,1,1.86-4.36,21.49,21.49,0,0,1,2.68-4,7.39,7.39,0,0,1,1.68-2.72,9.63,9.63,0,0,1,2.63-2,13.66,13.66,0,0,1,3.23-1.18,14.09,14.09,0,0,1,3.36-.41,1.39,1.39,0,0,1,.5.09l.49.18a9,9,0,0,1,3,.91,12.42,12.42,0,0,1,3.45,2.45,13.64,13.64,0,0,1,4,10.17q0,.73-.09,1.77t-.18,1.77a46.56,46.56,0,0,0,4.36-2q2.26-1.19,4.4-2.5t3.95-2.68a29.2,29.2,0,0,0,2.91-2.45,3.2,3.2,0,0,1,1.54-.91.83.83,0,0,1,.91.36,1.75,1.75,0,0,1,.09,1.27,4.51,4.51,0,0,1-1,1.82,27.15,27.15,0,0,1-2.31,2.18c-1.25,1.09-2.71,2.27-4.41,3.54s-3.54,2.51-5.54,3.72A28.33,28.33,0,0,1,242,124.89Zm-21.16,2.18a28.56,28.56,0,0,0,.18,3.22,9.4,9.4,0,0,0,.73,2.82,5.44,5.44,0,0,0,1.45,2,3.53,3.53,0,0,0,2.36.77,6,6,0,0,0,3-.77,9.69,9.69,0,0,0,2.45-2,14.66,14.66,0,0,0,1.95-2.82,24.1,24.1,0,0,0,1.5-3.31c-.42.06-.83.1-1.23.13s-.83,0-1.31,0a9.1,9.1,0,0,1-6-2,13.52,13.52,0,0,1-3.86-5.23c-.36,1.28-.67,2.52-.91,3.73A17.75,17.75,0,0,0,220.88,127.07Zm5.81-16a5.54,5.54,0,0,0-.27,1.73,27,27,0,0,0,.18,3,7.24,7.24,0,0,0,.91,2.86,5.67,5.67,0,0,0,2.31,2.14,9.4,9.4,0,0,0,4.41.86c.3,0,.6,0,.91,0s.6-.08.9-.14c.19-.79.35-1.5.5-2.14a7.38,7.38,0,0,0,.23-1.68,17.45,17.45,0,0,0,0-3.54,15.38,15.38,0,0,0-.68-3.31,7.72,7.72,0,0,0-1.27-2.45,2.33,2.33,0,0,0-1.86-1,6.34,6.34,0,0,0-3.32,1A11.09,11.09,0,0,0,226.69,111.08Z" transform="translate(0 -3.01)"/></svg>